<svg xmlns="http://www.w3.org/2000/svg" xmlns:xlink="http://www.w3.org/1999/xlink" width="100" height="100" viewBox="0 0 100 100" fill="none">
<rect x="0" y="0" width="0" height="0" fill="rgba(249, 249, 249, 1)" />
<path d="M93.3013 25L93.3013 75L50 100L6.69873 75L6.69873 25L50 0L93.3013 25Z"   fill="#FFFFFF" >
</path>
<path d="M82.476 31.25L82.476 68.75L50 87.5L17.524 68.75L17.524 31.25L50 12.5L82.476 31.25Z"   fill="#202020" >
</path>
<g  mask="url(#mask-3_19)">
<rect x="79.5" y="57.5" width="6.5" height="11.25"   fill="#FFFFFF" >
</rect>
<rect x="79.5" y="31.25" width="6.5" height="11.25"   fill="#FFFFFF" >
</rect>
<path d="M86 31.25L64.3334 68.75L53.5 68.75L75.1667 31.25L86 31.25Z"   fill="#FFFFFF" >
</path>
<path d="M53.5 31.25L75.1666 68.75L86 68.75L64.3333 31.25L53.5 31.25Z"   fill="#FFFFFF" >
</path>
<rect x="17.25" y="58.75" width="42.5" height="10"   fill="#FFFFFF" >
</rect>
<rect x="17.25" y="31.25" width="27.5" height="10"   fill="#FFFFFF" >
</rect>
<rect x="34.75" y="31.25" width="10" height="37.5"   fill="#FFFFFF" >
</rect>
</g>
<rect x="16.25" y="31.25" width="5" height="10"   fill="#FFFFFF" >
</rect>
<rect x="77.75" y="58.25" width="5" height="10"   fill="#FFFFFF" >
</rect>
<rect x="79.5" y="31.25" width="5" height="10"   fill="#FFFFFF" >
</rect>
<rect x="16.25" y="58.75" width="5" height="10"   fill="#FFFFFF" >
</rect>
<defs>
<mask id="mask-3_19" style="mask-type:alpha" maskUnits="userSpaceOnUse">
<path d="M82.476 31.25L82.476 68.75L50 87.5L17.524 68.75L17.524 31.25L50 12.5L82.476 31.25Z"   fill="#202020" >
</path>
</mask>
</defs>
</svg>
